<svg xmlns:dc="http://purl.org/dc/elements/1.1/" xmlns:cc="http://creativecommons.org/ns#" xmlns:rdf="http://www.w3.org/1999/02/22-rdf-syntax-ns#" xmlns:svg="http://www.w3.org/2000/svg" xmlns="http://www.w3.org/2000/svg" xmlns:sodipodi="http://sodipodi.sourceforge.net/DTD/sodipodi-0.dtd" xmlns:inkscape="http://www.inkscape.org/namespaces/inkscape" version="1.1" x="0px" y="0px" viewBox="0 0 100 125"><g transform="translate(0,-952.36218)"><path style="font-size:medium;font-style:normal;font-variant:normal;font-weight:normal;font-stretch:normal;text-indent:0;text-align:start;text-decoration:none;line-height:normal;letter-spacing:normal;word-spacing:normal;text-transform:none;direction:ltr;block-progression:tb;writing-mode:lr-tb;text-anchor:start;baseline-shift:baseline;opacity:1;color:#000000;fill:#000000;fill-opacity:1;stroke:none;stroke-width:2;marker:none;visibility:visible;display:inline;overflow:visible;enable-background:accumulate;font-family:Sans;-inkscape-font-specification:Sans" d="M 12.15625 18 C 9.3167039 18 7 20.3167 7 23.15625 L 7 67.5 C 7 70.3395 9.3167039 72.65625 12.15625 72.65625 L 87.84375 72.65625 C 90.683296 72.65625 93 70.3395 93 67.5 L 93 23.15625 C 93 20.3167 90.683296 18 87.84375 18 L 12.15625 18 z M 12.15625 20 L 87.84375 20 C 89.609891 20 91 21.39011 91 23.15625 L 91 67.5 C 91 69.2661 89.609891 70.65625 87.84375 70.65625 L 12.15625 70.65625 C 10.390109 70.65625 9 69.2661 9 67.5 L 9 23.15625 C 9 21.39011 10.390109 20 12.15625 20 z M 54.53125 27 A 1.0001 1.0001 0 0 0 53.9375 27.3125 L 47.40625 34 C 42.259232 32.32162 36.385974 33.4596 32.3125 37.625 C 28.345064 41.68202 27.086278 47.44523 28.53125 52.59375 A 1.0001 1.0001 0 0 0 30.21875 53.03125 L 38.6875 44.375 L 45.125 46.125 L 46.84375 52.71875 L 38.34375 61.40625 A 1.0001 1.0001 0 0 0 38.75 63.0625 C 43.803679 64.5455 49.501392 63.2446 53.46875 59.1875 C 57.55052 55.0136 58.684453 49.0386 57.03125 43.78125 L 71.75 28.71875 A 1.0054782 1.0054782 0 1 0 70.3125 27.3125 L 55.21875 42.75 A 1.0001 1.0001 0 0 0 55 43.78125 C 56.71207 48.4868 55.728583 54.00045 52.03125 57.78125 C 49.038542 60.84165 44.967105 61.96515 41.09375 61.40625 L 48.65625 53.6875 A 1.0001 1.0001 0 0 0 48.90625 52.75 L 46.90625 45.0625 A 1.0001 1.0001 0 0 0 46.21875 44.34375 L 38.65625 42.28125 A 1.0001 1.0001 0 0 0 37.6875 42.53125 L 30.1875 50.1875 C 29.65525 46.22154 30.768583 42.07999 33.75 39.03125 C 37.445307 35.25255 42.787334 34.28588 47.375 36.03125 A 1.0001 1.0001 0 0 0 48.4375 35.8125 L 55.375 28.71875 A 1.0001 1.0001 0 0 0 54.53125 27 z M 37.03125 80 A 1.0043849 1.0043849 0 0 0 37.21875 82 L 62.78125 82 A 1.0001 1.0001 0 1 0 62.78125 80 L 37.21875 80 A 1.0001 1.0001 0 0 0 37.03125 80 z " transform="translate(0,952.36218)"/></g><text x="0" y="115" fill="#000000" font-size="5px" font-weight="bold" font-family="'Helvetica Neue', Helvetica, Arial-Unicode, Arial, Sans-serif">Created by fae frey</text><text x="0" y="120" fill="#000000" font-size="5px" font-weight="bold" font-family="'Helvetica Neue', Helvetica, Arial-Unicode, Arial, Sans-serif">from the Noun Project</text></svg>